<?xml version="1.0" standalone="no"?>
<!DOCTYPE svg PUBLIC "-//W3C//DTD SVG 20010904//EN"
 "http://www.w3.org/TR/2001/REC-SVG-20010904/DTD/svg10.dtd">
      <svg version="1.0" xmlns="http://www.w3.org/2000/svg" width="16" height="16" viewBox="0 0 16 16" preserveAspectRatio="xMidYMid meet">
        <g transform="translate(0, 16) scale(0.002, -0.002)" fill="#1E8571" stroke="none">
          <path
            d="M3508 6043 l-3 -1587 -939 889 c-517 490 -943 890 -947 890 -10 0
-739 -696 -738 -704 0 -3 400 -384 888 -846 l889 -840 -914 -3 -914 -2 0 -525
0 -525 980 0 c539 0 980 -3 979 -7 0 -5 -284 -276 -630 -602 -346 -327 -628
-598 -627 -601 2 -3 122 -120 268 -260 146 -139 310 -297 365 -352 l101 -98
883 836 883 836 36 -34 c21 -19 296 -280 612 -579 316 -299 697 -659 846 -801
l271 -257 373 357 372 356 -40 36 c-23 19 -309 289 -637 600 l-596 565 1001 3
1000 2 0 525 0 525 -931 2 -931 3 890 843 890 843 -122 117 c-66 65 -233 225
-369 356 l-248 239 -26 -24 c-14 -13 -438 -414 -942 -891 l-916 -868 -3 1585
-2 1585 -525 0 -525 0 -2 -1587z"
          />
        </g>
      </svg>
